<svg xmlns="http://www.w3.org/2000/svg" width="121" height="38" viewBox="0 0 121 38">
  <g fill="none" fill-rule="evenodd">
    <g transform="translate(0 .334)">
      <path fill="#8E9E9D" d="M4.7103138 15.4990658C4.67468325 17.5336584 4.51406916 20.0052232 4.08124656 22.6276092 2.91738919 29.6797461 0 36.6893919 0 36.6893919L3.64587893 36.6207865C5.55681588 36.584824 7.78250775 35.1904746 8.67653567 33.4862944 8.31928966 33.5911943 7.96016253 33.6554842 7.60756399 33.6740187L4.33425663 33.8458089 4.63313272 33.1836008C4.653825 33.1378454 6.70844599 28.5525705 7.45873454 24.0068543 7.9011287 21.3263197 7.98871123 19.1435615 7.96497598 17.8968798 6.72133717 17.3252419 5.61507514 16.5046328 4.7103138 15.4990658M12.2467827 23.9120793C11.7285353 27.0524913 10.3532184 29.7216839 10.3532184 29.7216839L12.2619423 29.5242774C13.7989798 29.3653231 15.5115144 28.0743798 16.0876337 26.6408036 16.0876337 26.6408036 16.7725811 25.1871991 17.0140832 23.7246316 17.4069598 21.3434157 17.3544545 17.9137545 17.3544545 17.9137545 17.3568336 17.7104833 17.3502497 17.5097572 17.3336516 17.3138445 15.9955697 18.1432506 14.4473561 18.664209 12.7887653 18.7770759 12.7324978 19.9975881 12.5921887 21.8201126 12.2467827 23.9120793"/>
      <path fill="#8E9E9D" d="M8.40764677 18.0874257C8.41954206 19.2397198 8.35182189 21.3143138 7.89548535 24.0789453 7.12644097 28.738469 5.03673717 33.3657205 5.03673717 33.3657205L7.58427135 33.2319953C9.40452745 33.1363903 11.3248147 31.70973 11.9920021 29.997212L9.58494858 30.2461279 9.95962258 29.518966C9.97295637 29.492907 11.3098764 26.8704104 11.8099765 23.8400436L11.8099765 23.8399883C12.1467516 21.7998076 12.2862861 20.0077129 12.3434942 18.7978789 12.2648193 18.79976 12.185923 18.8009219 12.1067502 18.8009219 10.8001493 18.8009219 9.55175242 18.5472479 8.40764677 18.0874257M12.1068055 12.9100973C10.0349779 12.9100973 8.34944284 11.2245623 8.34944284 9.15273458 8.34944284 7.08096224 10.0349779 5.39542721 12.1068055 5.39542721 14.1785779 5.39542721 15.8641129 7.08096224 15.8641129 9.15273458 15.8641129 11.2245623 14.1785779 12.9100973 12.1068055 12.9100973M12.1324219 0C7.09971807 0 3.0052373 4.09441437 3.0052373 9.12711821 3.0052373 14.159822 7.09971807 18.2542364 12.1324219 18.2542364 17.1651811 18.2542364 21.2595954 14.159822 21.2595954 9.12711821 21.2595954 4.09441437 17.1651811 0 12.1324219 0"/>
      <path fill="#00CE96" d="M20.9722273 13.4257443L23.8741803 10.5583153C24.7492311 9.67684662 24.6448845 8.65883105 23.9681808 7.9869961L21.064568 5.1045182C22.2690907 7.73985068 22.2014812 10.7991535 20.9722273 13.4257443M12.115566 10.921033C11.1235087 10.921033 10.3193087 10.116833 10.3193087 9.1248686 10.3193087 8.13281133 11.1235087 7.32861132 12.115566 7.32861132 13.1075303 7.32861132 13.9117303 8.13281133 13.9117303 9.1248686 13.9117303 10.116833 13.1075303 10.921033 12.115566 10.921033M12.1273872 5.94471301C10.371089 5.94471301 8.94725035 7.36849631 8.94725035 9.12484981 8.94725035 10.881148 10.371089 12.3049313 12.1273872 12.3049313 13.8837407 12.3049313 15.3074686 10.881148 15.3074686 9.12484981 15.3074686 7.36849631 13.8837407 5.94471301 12.1273872 5.94471301"/>
      <path fill="#8E9E9D" d="M12.0880497,7.88735922 C11.4138783,7.88735922 10.8674563,8.43388158 10.8674563,9.10795258 C10.8674563,9.78212393 11.4138783,10.3286463 12.0880497,10.3286463 C12.7622211,10.3286463 13.3086431,9.78212393 13.3086431,9.10795258 C13.3086431,8.43388158 12.7622211,7.88735922 12.0880497,7.88735922"/>
    </g>
    <g fill="#8E9E9D" transform="translate(31.841 9.156)">
      <path d="M1.82959063,10.1645125 L6.07327574,10.1645125 C6.68322718,10.1645125 7.19969493,10.0462405 7.62333825,9.80879982 C8.04658601,9.57172833 8.35591288,9.31751597 8.5509233,9.04642644 C8.7454063,8.77560061 8.89782824,8.38571163 9.0081891,7.87741876 C9.11828626,7.36925774 9.17735635,6.98807105 9.18605864,6.73385869 C9.19449723,6.47991003 9.19884837,6.11573236 9.19884837,5.64132568 C9.19884837,3.06650255 8.12279698,1.77882727 5.97161716,1.77882727 L1.82959063,1.77882727 L1.82959063,10.1645125 Z M1.82959063,17.7877189 L0,17.7877189 L0,-2.84217094e-14 L6.1240391,-2.84217094e-14 C7.78419877,-2.84217094e-14 9.01662769,0.516995162 9.8214577,1.55006252 C10.6257603,2.58365728 11.028439,3.93870938 11.028439,5.61587808 C11.028439,6.20908421 11.0112981,6.72133267 10.9775438,7.15328272 C10.9435257,7.58523277 10.8377797,8.12767554 10.660042,8.7795562 C10.4821725,9.43183242 10.2407499,9.96554653 9.93577415,10.3804876 C9.63079843,10.7956923 9.16469848,11.15987 8.53813357,11.4731524 C7.9111731,11.7868304 7.16594059,11.943208 6.30190864,11.943208 L1.82959063,11.943208 L1.82959063,17.7877189 Z"/>
      <polygon points="15.17 17.788 17 17.788 17 0 15.17 0"/>
      <path d="M30.6964064 17.7877717L28.9430268 17.7877717 28.9430268 16.8475288C28.2144077 17.6606655 27.2317082 18.0672998 25.9953237 18.0672998 22.8101535 18.0672998 21.21803 16.5172373 21.21803 13.4171122L21.21803 5.05668999 23.0476206 5.05668999 23.0476206 13.4171122C23.0476206 15.3653705 24.0299246 16.3393677 25.9953237 16.3393677 27.9095639 16.3393677 28.8668158 15.3569319 28.8668158 13.3916646L28.8668158 5.05668999 30.6964064 5.05668999 30.6964064 17.7877717zM42.715588 6.07327574C44.1552897 5.26013899 45.5191759 4.85363655 46.8067193 4.85363655 48.0264904 4.85363655 48.9921809 5.24352553 49.7036591 6.02251237 50.4151373 6.80189478 50.7708763 7.79290106 50.7708763 8.99553123L50.7708763 17.7878112 48.9412857 17.7878112 48.9412857 9.37684977C48.9412857 7.92000724 48.466879 7.03065953 47.5183294 6.70854294 47.1625903 6.60701621 46.8615701 6.556121 46.6161919 6.556121 46.3704182 6.556121 46.0952412 6.56495514 45.7902655 6.58143675 45.4854216 6.59857763 45.0447692 6.71737708 44.4689677 6.93730769L43.6812786 7.31836253C43.9012092 7.79290106 44.01157 8.32664154 44.01157 8.91932026L44.01157 17.7878112 42.1819794 17.7878112 42.1819794 9.40216552C42.1819794 8.60616966 41.9954076 7.97090246 41.6229232 7.49636392 41.1485165 6.86979901 40.4369065 6.556121 39.4883568 6.556121 38.5394116 6.556121 37.6246163 6.81033336 36.7439709 7.31836253L36.7439709 17.7878112 34.9143802 17.7878112 34.9143802 5.05682185 36.6423123 5.05682185 36.6677599 5.69208905C37.6334504 5.15017369 38.6880098 4.8789523 39.831438 4.8789523 40.9748662 4.8789523 41.9362056 5.27727987 42.715588 6.07327574M61.8247629 16.2377223L61.8247629 10.4694223C60.6725006 9.8765722 59.4274138 9.50369224 58.0892389 9.35113846L57.7336316 9.35113846C57.1911889 9.35113846 56.7171777 9.51635012 56.3105434 9.84677345 55.904041 10.1771045 55.7007239 10.7406437 55.7007239 11.5366396L55.7007239 13.5186521C55.7007239 15.4499014 57.0220216 16.4155919 59.6648808 16.4155919 60.3084548 16.4155919 61.0282397 16.3563899 61.8247629 16.2377223L61.8247629 16.2377223zM53.8711332 11.3840858C53.8711332 8.86011831 55.1582811 7.59789064 57.7336316 7.59789064 58.0892389 7.59789064 58.4705574 7.62333825 58.8770599 7.67410161 60.07969 7.87741876 61.0623896 8.2584736 61.8247629 8.81766168 61.8247629 7.07298431 60.6304395 6.20025006 58.2417927 6.20025006L58.3688988 4.8535047C59.7410918 4.8535047 60.7575457 5.01476077 61.4182605 5.33621811 61.7738677 5.52292179 62.0871502 5.70909807 62.3583716 5.89540619 62.6291974 6.08197803 62.8412168 6.32735624 62.9936388 6.63220012 63.1460607 6.93717584 63.2731669 7.20391422 63.3748255 7.43281083 63.476484 7.66144374 63.5439927 7.9707706 63.5781426 8.36026403 63.628906 8.95347016 63.6543536 9.57159648 63.6543536 10.21521L63.6543536 17.7877849C61.8922716 17.9569521 60.4863243 18.0418654 59.4361161 18.0418654 55.7261715 18.0418654 53.8711332 16.5259527 53.8711332 13.4933364L53.8711332 11.3840858zM74.3525011 12.9596882L74.3525011 9.40216552C74.3525011 8.47062489 74.0686219 7.76310231 73.5012589 7.28025704 72.9333685 6.79754363 72.2218903 6.556121 71.3665607 6.556121 70.5109673 6.556121 69.8077959 6.81455266 69.2575738 7.33115226 68.7069561 7.84801557 68.4317792 8.62304683 68.4317792 9.65624603L68.4317792 13.3661907C68.4317792 14.3318812 68.6857278 15.0731581 69.1940207 15.5896259 69.7021817 16.106621 70.4137917 16.3646571 71.3284552 16.3646571 72.2433824 16.3646571 72.975957 16.0724711 73.5265746 15.4880991 74.0769286 14.9035953 74.3525011 14.0611872 74.3525011 12.9596882M73.0818349 23.1240953L72.6245691 21.7011389C73.7764359 21.3790223 74.3525011 20.5660174 74.3525011 19.2615969L74.3525011 16.6441852C73.7764359 17.6100076 72.7556308 18.092721 71.2903497 18.092721 69.8249367 18.092721 68.6770255 17.6862186 67.8472753 16.87295 67.0169977 16.0598132 66.6020567 14.874324 66.6020567 13.3154273L66.6020567 9.52913985C66.6020567 8.03867484 67.0379623 6.88245689 67.9108284 6.06061786 68.7831671 5.23904253 69.9436043 4.82805709 71.3921401 4.82805709 72.8405441 4.82805709 73.8526468 5.27714802 74.4287121 6.17493431L74.504923 5.05668999 76.1820917 5.05668999 76.1820917 19.4140188C76.1820917 20.4813679 75.9406691 21.3112499 75.4579557 21.9043242 74.9751104 22.4971348 74.1829383 22.9037691 73.0818349 23.1240953M86.4737368 10.9521489L86.4737368 8.99539937C86.4737368 8.09787678 86.1942087 7.45812659 85.6352843 7.0769399 85.0760962 6.69575321 84.42382 6.50509393 83.6785875 6.50509393 82.9329595 6.50509393 82.3019115 6.73385869 81.7854438 7.1913882 81.2684486 7.64865401 81.0104125 8.3180711 81.0104125 9.19871652L81.0104125 11.231677 86.4737368 10.9521489zM81.0104125 14.2810387C81.0104125 15.7211359 81.8573036 16.4410527 83.5514813 16.4410527 84.6016896 16.4410527 85.7535564 16.0940159 87.0073455 15.3991512L87.6935079 16.8984503C86.3886917 17.6948418 85.0253329 18.0926419 83.6023766 18.0926419 80.6546735 18.0926419 79.1806901 16.8562574 79.1806901 14.3826973L79.1806901 9.17340077C79.1806901 7.80120779 79.6084208 6.73385869 80.464146 5.97161716 81.3193438 5.20924378 82.4501142 4.82805709 83.8564571 4.82805709 85.2622725 4.82805709 86.3594204 5.20528819 87.1471095 5.95882743 87.9349305 6.71289408 88.3287751 7.75901487 88.3287751 9.0971898L88.3287751 12.5785543 81.0104125 12.959741 81.0104125 14.2810387z"/>
    </g>
  </g>
</svg>
